<?xml version="1.0" encoding="utf-8" ?><svg xmlns="http://www.w3.org/2000/svg" xmlns:xlink="http://www.w3.org/1999/xlink" viewBox="0 0 450 450"><path fill="currentColor" d="M216.373 42.0945C218.345 41.7097 223.132 42.7286 225.43 42.725C227.061 42.7224 229.526 42.4738 231.133 42.5834C231.629 42.6172 232.338 44.0153 233.34 44.1274C233.722 43.8072 233.813 43.7071 234.115 43.327L234.388 42.9813C236.365 42.6544 236.686 44.9403 237.503 44.8063C238.901 44.577 239.699 43.8577 241.442 44.6141C241.828 45.1441 242.008 45.5429 242.621 45.7175C243.455 45.0291 243.535 44.8702 244.454 45.2869C245.904 47.986 245.432 45.7537 247.324 46.4079C247.745 46.9965 247.978 47.5048 248.64 47.708L249.382 47.23C250.589 47.752 249.363 48.1269 250.613 48.9037L251.341 48.3679C251.156 48.3338 258.328 51.5354 258.633 51.6984C263.161 54.1164 268.011 56.8911 272.101 60.0208C273.019 60.7232 274.627 62.6587 275.67 63.6251C276.861 63.5683 276.914 63.5725 277.611 64.4367C277.386 64.9316 277.381 64.9004 277.352 65.439C278.077 66.5976 279.399 67.1509 280.635 67.8718C282.375 72.3747 287.168 73.8838 287.782 75.5676C287.4 76.0282 287.35 76.039 287.13 76.5848C287.483 77.1951 288.34 77.6191 288.956 78.0196C290.764 79.1946 291.71 81.292 293 83.0864C296.266 87.326 298.116 92.9921 301 97.3098C304.832 103.046 308.076 108.67 311.559 114.577L326.072 139.384C327.458 141.807 333.101 149.979 333.736 151.55C332.877 152.976 333.76 153.077 334.694 154.546C336.982 158.146 338.541 161.485 341.504 164.645C342.033 165.209 341.135 165.776 341.388 166.718C342.027 166.758 342.317 166.716 342.857 167.063C345.139 171.329 347.469 175.825 349.891 179.996C352.017 183.657 354.554 187.224 356.648 190.95L373.883 221.268C375.637 224.346 377.237 227.676 379.032 230.665C381.676 235.069 384.708 239.416 387.314 243.86C388.996 246.729 390.321 250.193 391.941 253.134C393.492 255.951 395.94 258.968 397.439 261.769C402.228 270.724 407.19 279.495 412.302 288.268C414.142 291.427 416.274 294.471 418.1 297.599C419.524 300.138 420.628 302.86 422.091 305.379C427.091 313.988 432.411 322.251 436.74 331.238C438.509 334.911 441.549 338.537 443.163 342.379C444.97 346.68 446.797 351.171 447.32 355.845C447.545 357.952 447.422 360.457 447.591 362.665C447.694 364.007 447.805 366.243 447.664 367.596C447.576 368.428 447.079 367.723 446.076 368.32C445.962 369.139 446.436 370.045 446.749 370.85C446.128 375.504 443.698 380.493 441.331 384.49C441.105 384.872 439.833 385.859 439.336 386.446C439.402 386.819 439.459 386.988 439.608 387.323C435.17 394.855 424.705 402.675 416.38 404.955C405.32 407.984 391.055 407.516 379.816 407.511L365.509 407.507C362.976 407.504 360.416 407.527 357.881 407.428C355.375 407.33 354.965 406.458 353.323 404.497C353.513 404.126 353.608 403.912 353.76 403.524C348.88 397.067 342.947 384.709 339.447 377.112C338.911 376.117 336.503 371.866 336.356 371.472C336.566 371.086 336.635 370.929 336.793 370.517C335.016 366.752 332.137 364.525 330.72 359.738C330.172 357.885 326.441 352.928 325.402 350.519C323.529 346.175 321.436 341.694 319.433 337.409C318.846 337.143 318.565 337.09 318.232 336.541L318.714 335.535C318.44 334.646 317.098 333.4 316.399 332.653C316.419 330.72 315.132 329.441 314.106 327.641C310.318 320.992 306.616 314.509 303.652 307.426C302.961 305.775 301.5 304.24 301.662 302.533C301.677 302.029 299.311 300.963 299.107 299.359C299.561 298.997 299.787 298.898 300.012 298.372L299.768 298.035C299.129 298.072 298.808 298.159 298.248 297.853L298.181 297.264C298.761 296.159 299.057 295.782 298.912 294.473C298.793 294.512 329.394 294.638 330.645 294.809C332.302 293.63 333.61 293.054 335.52 292.417C341.81 290.321 346.385 285.004 349.381 279.332L348.98 278.599C349.313 277.776 349.668 277.936 350.319 277.19C351.546 275.783 350.2 276.056 350.173 274.347C350.75 273.339 351.052 273.246 352.061 272.577C350.996 269.759 351.316 269.509 351.354 266.659C351.354 266.659 350.743 265.955 350.743 265.955C350.496 263.97 350.119 262.077 349.505 260.196C346.561 251.856 339.764 246.474 331.445 244.023C327.84 242.961 323.73 243.208 320.043 243.201C315.965 243.193 311.938 243.234 307.885 243.231C285.513 243.359 263.14 243.307 240.768 243.076C233.625 242.957 226.115 243.429 218.975 242.888C217.962 242.811 215.008 241.276 213.978 240.778C213.399 240.217 212.247 237.704 211.905 236.873C212.438 234.765 213.147 233.217 213.655 231.259C212.896 229.821 213.326 225.073 213.667 222.372C214.192 218.211 212.602 210.879 213.8 206.924C214.013 206.224 210.862 205.166 212.68 202.651L212.579 202.188L211.783 201.867C211.292 201.005 211.701 198.755 211.337 197.647C210.943 196.448 210.091 195.86 210.009 194.647C210.408 194.19 210.428 194.208 210.655 193.653C209.858 191.127 205.778 183.025 204.548 180.397C205.253 177.125 202.977 178.612 202.346 175.975C201.684 173.212 199.226 170.726 197.483 168.4L187.867 155.549C185.666 152.619 183.772 149.086 181.497 146.297C177.141 140.959 173.356 135.715 169.457 130.059C164.952 123.524 159.496 117.54 155.111 110.882C153.72 108.768 151.228 106.632 149.775 104.47C147.544 101.282 145.111 98.3739 142.427 95.5715C142.417 95.5614 142.716 94.5449 142.396 94.2263C141.155 92.9918 138.967 91.8643 138.48 90.1065C138.218 88.3909 140.094 88.4967 140.762 87.4867L140.311 86.7757C140.537 85.6686 150.657 72.0696 152.325 70.1858C159.955 61.5672 170.92 53.9673 181.483 49.3121C181.854 49.1485 181.843 49.9061 182.657 49.9332C182.969 49.3618 182.957 49.2215 183.043 48.5923L183.068 48.3968L183.505 48.0951C183.857 48.3653 184.184 48.649 184.504 48.9572C185.079 48.4858 184.919 48.3737 185.108 47.4157C185.669 46.9502 185.351 47.0701 186.107 47.0778C186.566 47.5247 186.759 47.7916 187.372 47.9927L187.766 47.7666C189.069 44.75 189.152 46.4807 190.582 46.4523L191.111 45.4557C192.678 44.467 192.182 45.6765 193.529 45.8427L194.352 44.9079C195.578 44.4625 200.104 43.047 201.297 43.1726C203.213 45.357 203.08 42.3562 204.729 42.5108C208.983 42.9097 212.155 42.7862 216.373 42.0945Z"/><path fill="currentColor" d="M110.468 145.932C110.295 145.787 111.685 147.732 111.633 147.63C113.134 150.611 114.961 153.425 116.466 156.402C116.8 157.061 116.214 157.923 116.647 158.817L117.566 159.103L117.755 159.507C117.663 159.647 117.48 159.917 117.415 160.063C117.013 160.962 120.96 165.955 121.553 167.306C121.999 168.321 120.939 168.873 121.325 169.836C121.772 169.93 122.166 170.021 122.608 170.136C123.041 171.69 122.297 170.084 122.247 171.601L123.235 172.127C125.387 175.92 127.485 181.275 129.287 185.36C132.145 191.838 135.3 198.129 137.898 204.698C138.831 207.057 140.837 209.806 141.901 212.161C142.166 212.748 141.615 212.707 141.702 213.515L142.635 214.12C143.044 215.579 142.473 214.206 142.278 215.596C142.609 215.756 143.331 216.092 143.47 216.404C144.628 218.998 146.711 222.826 147.617 225.383C147.172 227.376 148.881 228.334 149.77 230.129C150.966 232.545 151.941 235.009 153.045 237.462C153.753 239.033 154.652 240.572 155.406 242.125C156.361 243.936 156.807 244.653 156.625 246.799C156.641 246.614 157.554 247.086 157.818 247.449C157.556 247.825 157.507 247.903 157.293 248.287C159.672 252.272 162.035 255.095 163.107 259.76C163.085 259.664 163.691 260.386 163.709 260.407C163.505 261.809 163.361 263.163 163.212 264.57C163.834 265.42 164.501 266.498 165.09 267.392C164.724 268.211 162.957 270.731 163.07 270.887C164.372 272.682 163.148 275.36 162.384 277.472C161.812 279.051 160.967 282.3 159.059 282.936C158.653 283.072 158.428 283.179 158.161 283.55L158.92 284.281C158.942 285.361 149.723 301.55 148.551 303.784L131.628 336.706C130.701 338.53 130.603 340.071 129.639 341.809C129.303 341.903 128.293 342.134 128.255 342.537C130.023 344.111 126.137 346.769 125.607 348.357C125.407 348.954 125.522 348.737 125.792 349.388C125.446 350.048 125.408 349.881 124.517 350.264C123.922 351.419 124.725 350.231 124.598 351.663C122.511 353.115 118.816 363.711 117.04 366.619C113.254 372.29 110.652 380.375 106.775 385.682C102.594 391.405 99.5145 403.809 94.1823 407.192C89.236 407.484 84.0357 407.361 79.0669 407.341C71.3938 407.286 63.7203 407.3 56.0474 407.383C49.3734 407.346 43.0316 406.438 36.4768 405.22C36.264 405.352 36.0511 405.485 35.8382 405.617C33.9668 405.632 32.4287 402.348 30.6051 403.749C29.8903 403.859 28.213 402.833 27.5142 402.451C26.3912 401.85 25.3093 401.175 24.2757 400.43C21.6554 398.509 19.4269 396.029 16.6556 394.293C16.1701 393.989 14.8401 393.164 14.371 392.676C14.3686 392.674 14.819 391.734 14.8209 391.736C14.1564 390.906 12.5406 389.327 11.9526 388.605C9.98954 386.195 8.06534 383.64 6.57669 380.923C5.78495 379.478 6.84776 380.144 6.41597 378.682C5.77676 378.335 5.50398 378.26 5.12319 377.636C5.23727 377.169 5.36579 376.928 5.61385 376.516C5.18208 375.534 5.28181 375.755 4.3249 375.066L4.12175 374.922C4.20003 374.045 4.81252 373.421 5.35397 372.695C0.797201 369.579 4.20186 369.19 3.65713 367.734C1.53295 362.055 2.05556 360.96 3.48323 355.334L2.9622 354.547C2.87653 352.463 4.58069 351.599 4.91561 350.241C4.47536 349.8 4.486 349.827 4.21177 349.271L4.42584 348.676C5.00032 348.314 5.52943 348.084 5.82877 347.498C5.56844 347.049 5.55235 347.004 5.39219 346.509C6.07111 344.701 6.88878 342.322 7.7349 340.62C8.26856 339.547 9.75823 337.89 10.3056 336.741C13.3937 330.257 16.6005 324.027 19.9904 317.702C24.1074 310.022 26.4195 303.338 31.6416 296.216L31.3607 295.541C35.1977 290.238 36.9575 283.944 40.1585 278.323C40.4201 277.864 41.2944 277.873 41.8099 277.826L41.9858 277.388L41.1863 276.675C40.936 275.089 45.7595 270.063 46.7658 267.357C46.339 265.964 47.3408 264.863 48.0331 263.575C53.9555 252.552 59.7965 241.604 65.241 230.34C65.5264 229.75 66.039 229.832 66.6155 229.75C67.4502 228.658 65.2314 229.579 66.7691 226.847C68.2028 224.299 69.9333 221.739 71.2651 219.168L81.6425 199.112C84.8181 192.895 87.7264 186.802 91.3988 180.788C92.0682 179.231 92.8281 177.466 93.5203 175.947C94.2747 174.291 95.7665 173.766 95.5701 171.946C95.5314 171.587 97.2213 169.13 97.5867 168.644C99.9114 165.552 100.385 160.876 103.385 158.429C102.829 158.851 107.082 151.396 106.683 152.313C106.341 151.862 106.332 151.9 106.239 151.35C106.988 149.798 109.244 147.16 110.468 145.932Z"/><path fill="currentColor" d="M224.74 294.179C225.809 294.205 227.244 295.336 228.556 295.974C232.851 294.236 230.713 295.691 232.383 296.755C232.74 296.593 233.046 296.404 233.372 296.188C233.454 296.207 233.536 296.227 233.618 296.247C234.554 296.712 235.411 297.662 236.346 298.284C238.969 300.028 240.897 301.514 242.939 303.957C244.94 306.351 245.753 308.273 247.159 310.979C247.922 312.447 249.169 314.038 249.915 315.535C253.689 323.108 257.112 330.763 260.963 338.313C262.739 341.797 265.249 345.065 267.143 348.666C268.38 351.019 270.161 355.037 271.451 357.538C271.376 357.78 271.3 358.022 271.225 358.264C271.633 359.294 272.999 360.032 273.846 361.463C273.781 361.709 273.585 362.455 273.659 362.53C276.979 365.901 280.952 375.567 282.947 379.232C286.72 386.166 288.466 389.985 292.014 396.673C292.669 397.93 296.193 405.747 296.144 406.34C294.341 407.864 272.203 407.273 268.349 407.268L223.875 407.261L177.497 407.272C173.421 407.278 157.547 407.653 154.179 406.79C152.912 404.065 161.878 390.425 163.673 387.32C163.508 387.014 163.321 386.745 163.105 386.474L163.342 386.111C164.037 386.025 164.204 386.085 164.705 385.612C164.506 385.128 164.487 385.054 164.383 384.54C166.765 378.758 171.155 371.637 173.975 365.865C176.481 360.735 180.259 356.191 182.258 350.533C183.039 348.324 186.153 343.201 187.549 341.205L187.318 340.485C187.871 339.424 188.099 340.532 188.767 339.385C188.441 338.927 188.443 338.965 188.34 338.416C190.614 334.343 192.821 330.279 194.835 326.071C195.72 324.222 196.131 323.349 198.001 322.449C197.949 321.102 197.664 322.773 197.127 321.481C198.262 318.98 200.04 316.771 201.302 314.389C202.79 311.143 204.257 308.387 206.282 305.417C208.242 302.542 218.114 292.655 221.637 295.732C222.672 295.708 223.789 294.787 224.74 294.179Z"/></svg>